<?xml version="1.0" encoding="UTF-8" standalone="no"?>
<svg
   xmlns:dc="http://purl.org/dc/elements/1.1/"
   xmlns:cc="http://creativecommons.org/ns#"
   xmlns:rdf="http://www.w3.org/1999/02/22-rdf-syntax-ns#"
   xmlns:svg="http://www.w3.org/2000/svg"
   xmlns="http://www.w3.org/2000/svg"
   xmlns:sodipodi="http://sodipodi.sourceforge.net/DTD/sodipodi-0.dtd"
   xmlns:inkscape="http://www.inkscape.org/namespaces/inkscape"
   version="1.1"
   id="svg10"
   width="779"
   height="779"
   viewBox="0 0 779 779"
   sodipodi:docname="logo_main.svg"
   inkscape:version="0.92.3 (2405546, 2018-03-11)">
  <metadata
     id="metadata20">
    <rdf:RDF>
      <cc:Work
         rdf:about="">
        <dc:format>image/svg+xml</dc:format>
        <dc:type
           rdf:resource="http://purl.org/dc/dcmitype/StillImage" />
        <dc:title></dc:title>
      </cc:Work>
    </rdf:RDF>
  </metadata>
  <defs
     id="defs14" />
  <sodipodi:namedview
     pagecolor="#ffffff"
     bordercolor="#666666"
     borderopacity="1"
     objecttolerance="10"
     gridtolerance="10"
     guidetolerance="10"
     inkscape:pageopacity="0"
     inkscape:pageshadow="2"
     inkscape:window-width="3440"
     inkscape:window-height="1377"
     id="namedview12"
     showgrid="false"
     inkscape:zoom="1.550706"
     inkscape:cx="399.17301"
     inkscape:cy="389.5"
     inkscape:window-x="-8"
     inkscape:window-y="-8"
     inkscape:window-maximized="1"
     inkscape:current-layer="svg10"
     inkscape:pagecheckerboard="true" />
  <path
     style="fill:#ffffff"
     d="M 385.7739,773.86195 C 383.887,770.91288 379.8445,764.675 376.7907,760 c -21.4803,-32.88345 -46.183,-71.78425 -46.6022,-73.38732 -0.5596,-2.13961 -2.1132,-2.23921 18.3115,1.17395 14.1596,2.36619 67.4979,2.3455 82,-0.0318 20.7402,-3.39992 18.8728,-3.28836 18.2987,-1.0932 -0.5069,1.93866 -55.9185,88.55282 -58.3455,91.20033 -1.0292,1.12265 -1.8513,0.41986 -4.6793,-4 z m -79.319,-94.31266 C 254.9683,664.61858 214.62488,640.72486 176.447,602.55107 159.60685,585.71273 152.29398,577.16774 140.88724,561 c -18.21478,-25.81737 -34.60068,-61.13676 -42.682,-92 -4.45865,-17.02797 -4.45404,-17 -2.80081,-17 0.79339,0 11.15463,6.3 23.02497,14 11.87034,7.7 22.02978,14 22.57652,14 1.40269,0 1.34509,-0.28521 -2.47336,-12.24648 -8.59987,-26.93914 -12.01598,-49.68864 -11.90083,-79.25352 0.11835,-30.38765 3.26996,-50.40544 12.55979,-79.77495 1.70055,-5.37623 2.85694,-10.00992 2.56976,-10.2971 -0.28718,-0.28718 -10.7669,6.0481 -23.28826,14.07841 -12.52136,8.0303 -23.13865,14.22801 -23.59398,13.77268 -1.14607,-1.14607 4.95237,-24.09922 10.56891,-39.77904 9.67919,-27.02161 29.20124,-62.1758 46.65593,-84.01532 15.00121,-18.7697 34.40859,-37.91113 53.89612,-53.15756 20.12923,-15.74848 54.9416,-34.7241 80.5,-43.87917 15.6626,-5.610375 38.6325,-11.715405 39.7761,-10.571835 0.4537,0.45372 -5.7367,11.078325 -13.7564,23.610225 -8.0198,12.53191 -14.3537,23.01294 -14.0755,23.29119 0.2782,0.27824 4.9046,-0.88622 10.2808,-2.58769 25.1931,-7.97314 47.5486,-11.86106 73.6964,-12.81676 26.8166,-0.98015 56.5467,3.14607 84.0082,11.65947 7.1112,2.20458 13.2498,3.66162 13.6411,3.23788 0.3914,-0.42373 -5.7995,-10.83778 -13.7576,-23.14231 -7.9581,-12.30454 -14.0967,-22.733165 -13.6412,-23.174745 1.2041,-1.16735 24.7289,5.046935 39.8281,10.520925 80.5019,29.18481 144.3003,90.57946 176.9412,170.27465 8.2976,20.25923 16.6261,49.47338 14.4819,50.7986 -0.4542,0.28066 -10.4101,-5.64913 -22.1244,-13.17732 -22.4543,-14.43025 -25.5048,-16.01767 -24.5554,-12.77816 0.3075,1.04936 2.1781,7.08293 4.1569,13.40793 15.4172,49.27896 15.0878,103.56908 -0.9328,153.75352 C 636.6586,479.68464 636.5943,480 637.9697,480 c 0.5334,0 10.7358,-6.3 22.672,-14 11.9362,-7.7 22.3084,-14 23.0493,-14 1.4276,0 1.4139,0.1161 -1.3638,11.5 -6.4472,26.4227 -19.0631,56.82632 -33.6106,81 -13.5527,22.52058 -25.7553,37.81746 -47.0892,59.02985 -30.6699,30.49518 -62.744,51.62475 -101.0086,66.54178 C 479.4695,678.31641 452,685.78194 452,683.28499 c 0,-0.51816 1.3114,-2.93175 2.9141,-5.36355 18.4767,-28.03341 26.008,-40.45374 24.6977,-40.73045 -0.8047,-0.16996 -6.5118,1.28965 -12.6823,3.24357 -49.2544,15.59657 -105.6046,15.59657 -154.859,0 -6.1705,-1.95392 -11.8731,-3.41353 -12.6723,-3.24357 -1.004,0.21348 2.909,7.07478 12.658,22.19549 7.7612,12.03757 14.3468,22.50007 14.6346,23.25 0.8934,2.32819 -4.2869,1.53789 -20.2359,-3.08719 z m 114.2439,-53.09432 c 97.1831,-12.72335 176.6884,-83.14237 200.7551,-177.81168 5.4482,-21.43088 6.9554,-34.18718 6.9882,-59.14329 0.036,-27.33978 -1.822,-41.66487 -8.5067,-65.58565 C 604.8451,269.91416 569.3868,221.49898 521.5,189.50976 508.1729,180.60703 482.6025,168.15117 466.2075,162.57573 406.3277,142.21237 339.3286,146.81726 282.6339,175.19285 236.1644,198.45076 199.74112,234.46508 176.45921,280.17542 157.17941,318.02826 148.78225,355.93939 150.36156,398 c 1.32179,35.20244 8.86742,65.40004 24.1137,96.50295 C 210.74799,568.50056 281.7861,618.27429 364,627.29586 c 10.1404,1.11274 45.8183,0.5836 56.6988,-0.84089 z m -41.1599,-9.56732 C 360.017,614.04353 344.346,604.83076 336.5384,591.60822 331.2329,582.62306 329.5833,576.09871 329.5581,564 c -0.035,-16.89976 3.0758,-21.97561 27.2085,-44.39204 2.8966,-2.69062 5.539,-5.97755 5.872,-7.30428 0.9973,-3.9735 -0.3169,-8.97581 -3.6192,-13.77547 -2.02,-2.93592 -2.64,-4.52821 -1.7632,-4.52821 2.2223,0 10.0754,5.41749 13.165,9.0819 8.6493,10.25869 7.3543,20.15341 -4.6355,35.4181 -9.5434,12.15017 -12.3551,20.24919 -11.5765,33.34653 0.5561,9.35552 3.9955,17.01776 11.1605,24.86349 5.8309,6.38481 17.9485,14.56191 25.8609,17.45121 3.1518,1.15093 5.4877,2.48548 5.191,2.96568 -0.6542,1.05853 -8.7636,0.94361 -16.8827,-0.23926 z m 26.1069,-0.65174 c -1.3361,-2.16182 -2.6399,-13.83632 -2.0611,-18.45546 1.2626,-10.07712 6.242,-16.60655 17.7429,-23.26605 11.1941,-6.4819 18.3459,-16.39496 21.3157,-29.54599 0.8638,-3.82486 1.938,-6.72718 2.3872,-6.44959 0.4491,0.27759 1.6385,2.86191 2.643,5.74294 2.8061,8.04774 2.4822,25.28206 -0.6236,33.17909 -3.9319,9.99784 -9.0371,17.71055 -16.9679,25.6347 -9.4008,9.39288 -22.4284,16.40901 -24.4362,13.16036 z m -14.7493,-5.14699 C 372.332,599.1849 363.5635,584.47807 366.2269,569.71225 367.8823,560.53508 372.4746,553.41706 384.1061,542 402.1863,524.25304 406.7597,514.80789 405.7189,497.36372 405.4117,492.21368 405.5197,488 405.959,488 c 0.4393,0 3.7344,3.11193 7.3224,6.91541 13.0927,13.87899 18.8693,28.22307 16.5325,41.05287 -1.3537,7.4325 -3.4132,11.08674 -11.8532,21.03172 -12.7321,15.00242 -17.6516,23.25851 -20.3578,34.16513 -1.9435,7.83307 -1.3961,13.18167 2.0557,20.08487 2.1541,4.30808 2.2107,4.74835 0.6083,4.73225 -0.9718,-0.01 -5.1885,-2.21176 -9.3704,-4.89333 z M 285.2406,591.48537 C 263.4205,579.94393 247.979,568.78772 230.63218,552.03172 186.72833,509.62325 162,450.9846 162,389.28329 c 0,-15.48926 1.96337,-34.54529 4.99371,-48.46795 1.88001,-8.63752 2.33601,-9.5912 6.26691,-13.10657 6.00012,-5.36584 14.02617,-9.99179 22.75801,-13.11694 6.48314,-2.32035 7.7915,-3.20059 9.5,-6.39139 2.57085,-4.80135 6.22991,-5.39236 10.97548,-1.77273 4.05783,3.09506 5.86175,3.21643 8.50589,0.57229 2.80805,-2.80805 2.56553,-3.47853 -2.28667,-6.32211 C 215.79713,296.62473 213.73975,290 219.39719,290 c 1.35297,0 3.217,-0.75705 4.14228,-1.68233 1.57643,-1.57643 1.56658,-1.76695 -0.15649,-3.0269 -1.51301,-1.10634 -1.6223,-1.64987 -0.61683,-3.06767 0.67209,-0.9477 3.46836,-6.13288 6.21394,-11.52261 2.74557,-5.38973 6.29486,-11.68973 7.8873,-14 4.00821,-5.81498 12.93211,-14.04738 18.06691,-16.667 6.7905,-3.46424 16.4855,-5.10691 23.9267,-4.05404 3.4986,0.49501 8.4759,0.64955 11.0608,0.34341 3.5678,-0.42256 5.6645,-0.0644 8.7058,1.48718 4.7594,2.42805 6.2081,4.0266 7.7721,8.57588 0.6927,2.01504 2.9813,4.78598 5.6066,6.78834 9.9077,7.55693 15.3302,19.09515 14.7917,31.47494 -0.209,4.80561 -0.6865,6.8508 -1.5994,6.8508 -0.7158,0 -2.393,2.7 -3.7272,6 -2.425,5.99794 -5.8023,9.92654 -7.8728,9.15787 -0.6042,-0.22433 -0.9861,-0.91412 -0.8486,-1.53287 0.1375,-0.61875 0.3625,-1.66077 0.5,-2.31561 0.1375,-0.65484 -0.5362,-1.36258 -1.4971,-1.57276 -1.1534,-0.2523 -2.0795,0.49206 -2.7252,2.19061 -0.6063,1.59451 -1.7481,2.57276 -3.0029,2.57276 -1.4801,0 -2.0248,0.65672 -2.0248,2.44098 0,1.34254 -0.4845,2.7404 -1.0766,3.10635 -0.6304,0.3896 -0.9412,3.00445 -0.75,6.30902 L 302.5,323.5 h -4.1979 c -3.5912,0 -4.825,0.61418 -8.5378,4.25 -2.387,2.3375 -4.8548,4.25 -5.4841,4.25 -0.6292,0 -2.1655,1.4625 -3.4139,3.25 -4.2336,6.06152 -6.3069,6.21387 -12.1386,0.89195 C 263.7606,331.60912 260.9414,330 257.9669,330 c -3.5946,0 -9.0908,3.15538 -11.019,6.326 -1.8113,2.97856 -1.8071,3.00347 1.6759,9.91981 4.332,8.60226 4.1497,10.62446 -1.1215,12.44233 -6.18,2.13128 -7.0023,3.4542 -7.0023,11.26531 0,5.75904 -0.3669,7.27202 -2.25,9.27829 -2.49854,2.66196 -2.77528,5.7255 -1.24573,13.79076 1.61667,8.52468 3.00363,12.9775 4.04213,12.9775 0.5332,0 33.9191,-32.175 74.1909,-71.5 40.2719,-39.325 73.6826,-71.5 74.2462,-71.5 0.5635,0 37.9209,36 83.0165,80 45.0956,44 82.3312,80 82.746,80 1.2826,0 0.8302,-9.88426 -0.608,-13.28212 -0.7491,-1.76983 -2.372,-4.11788 -3.6064,-5.21788 -4.4072,-3.92723 -6.2921,-9.33551 -6.4861,-18.61011 l -0.1811,-8.65366 -5.1822,-6.99043 C 536.332,366.40106 534,362.50795 534,361.59444 c 0,-0.91351 1.125,-3.88101 2.5,-6.59444 1.375,-2.71343 2.5,-5.80186 2.5,-6.86316 C 539,345.9518 532.722,340 530.4172,340 c -0.8323,0 -4.0792,1.65519 -7.2152,3.67821 -9.0054,5.80916 -10.4382,5.43123 -21.1614,-5.58172 -6.9832,-7.1719 -9.4576,-9.13283 -10.7997,-8.55857 -3.4606,1.48079 -6.7777,1.56142 -8.6,0.20906 -1.7912,-1.32928 -1.797,-1.65849 -0.1601,-9.01599 2.0086,-9.02825 1.4581,-12.59203 -2.6715,-17.29535 -5.5714,-6.34552 -7.467,-19.49073 -4.3325,-30.04543 3.1952,-10.75957 13.6766,-21.28053 28.5232,-28.63081 8.1646,-4.04215 8.8749,-4.20922 18,-4.23381 8.4468,-0.0228 10.1428,0.29002 15.2976,2.82124 12.3711,6.07468 22.8547,19.42464 25.6421,32.65317 0.6374,3.025 1.4298,11.43362 1.7609,18.68582 0.7046,15.43113 1.3131,17.07237 4.7698,12.86448 2.9358,-3.57372 6.404,-3.72663 14.5894,-0.64325 7.4598,2.81004 8.9854,4.07585 9.8128,8.14181 0.673,3.30693 0.9191,3.4731 5.8903,3.97659 2.8534,0.28899 5.66,0.99744 6.2369,1.57432 1.4613,1.4613 6.5367,22.00247 8.5244,34.49937 2.2601,14.21018 3.0007,40.94197 1.539,55.54351 -3.7652,37.61008 -17.3113,75.87719 -37.2147,105.12992 C 567.0797,533.06958 546.635,555.25228 531.5,567.14608 518.1397,577.64524 500.1019,589 496.7836,589 c -0.7128,0 -4.7391,-5.74056 -8.9473,-12.7568 -4.2082,-7.01624 -10.0021,-15.67874 -12.8753,-19.25 -6.2486,-7.76687 -7.961,-11.48357 -7.961,-17.27958 0,-9.30974 5.8972,-23.25089 11.2292,-26.54627 5.5235,-3.41368 18.9771,-6.71179 47.2708,-11.5883 14.85,-2.55944 29.475,-5.21557 32.5,-5.90252 l 5.5,-1.249 -0.3355,-6.08607 c -0.2576,-4.6747 0.1482,-7.03406 1.75,-10.17393 2.2629,-4.43564 2.6677,-7.68967 1.0787,-8.67171 -0.5537,-0.34221 -9.2162,-1.49695 -19.25,-2.56607 -19.2181,-2.04775 -28.0763,-3.40648 -30.0511,-4.60946 -0.6556,-0.39942 -2.0123,-1.75988 -3.0147,-3.02325 C 512.675,458.03367 511.23,457 510.4664,457 c -0.7637,0 -2.2958,-0.97387 -3.4047,-2.16416 -1.8537,-1.98974 -3.0456,-2.17166 -14.789,-2.25729 -15.9031,-0.11595 -24.1675,-2.163 -29.079,-7.20272 -1.8184,-1.86594 -5.0482,-4.28129 -7.1773,-5.36745 -2.129,-1.08616 -4.1487,-2.84971 -4.488,-3.919 -0.3394,-1.06928 -2.2278,-2.89448 -4.1964,-4.05598 -3.5268,-2.08088 -3.5696,-2.18454 -2.9212,-7.07262 0.7125,-5.37127 -0.2476,-6.18886 -4.5585,-3.88173 -1.5956,0.85394 -2.2765,0.72307 -3.2639,-0.62731 -1.1453,-1.56621 -2.3478,-1.60909 -14.6417,-0.52209 -7.3667,0.65134 -13.5336,1.32395 -13.7044,1.49469 -0.1707,0.17074 0.8185,4.20608 2.1983,8.96743 4.5689,15.76641 4.409,25.71939 -0.4844,30.14785 -2.8968,2.62154 -3.5238,1.04558 -1.4308,-3.5959 l 1.8383,-4.07667 -3.2005,-6.18353 c -4.3023,-8.31214 -14.8364,-26.91182 -16.0227,-28.29068 -0.5239,-0.60894 -2.7948,-1.40176 -5.0465,-1.76182 -5.5027,-0.87992 -5.1888,-2.44981 0.5651,-2.82623 l 4.6591,-0.30479 2.1392,-8 c 3.4094,-12.75037 4.9943,-14.52278 9.354,-10.46104 2.4673,2.29858 2.7655,5.78414 1.0709,12.51414 -0.9483,3.76615 -0.8586,4.83407 0.5919,7.04783 l 1.7095,2.60909 11.1582,-0.57593 c 28.9026,-1.49183 30.5248,-1.69899 30.8539,-3.94014 0.2243,-1.52768 1.4867,-2.3742 4.8042,-3.22138 2.475,-0.63203 5.9402,-1.89692 7.7003,-2.81086 4.258,-2.21087 5.6685,-2.10767 11.1523,0.816 2.5561,1.36274 7.1909,3.62462 10.2997,5.02639 3.1087,1.40178 6.4059,3.69889 7.327,5.10468 3.9032,5.95702 8.6273,10.18863 12.102,10.8405 4.1742,0.78308 10.0107,-0.86826 13.1368,-3.7168 2.0538,-1.87141 3.0355,-1.96945 13.25,-1.3231 C 535.2572,423.8706 539,423.76135 539,423.08734 539,421.50377 391.1596,279.5 389.5109,279.5 c -0.803,0 -33.8714,31.20155 -73.4854,69.33677 -65.3649,62.9248 -72.0275,69.6293 -72.0475,72.5 -0.041,5.93411 -3.3835,11.33491 -8.89731,14.37722 -2.77714,1.53231 -4.92348,3.23601 -4.76966,3.78601 0.85399,3.05338 36.15347,18.90488 50.02357,22.46351 9.3227,2.39189 12.2843,3.80598 14.248,6.80297 1.4066,2.14663 2.1094,2.37847 5.5453,1.82906 4.8512,-0.77574 22.6495,-7.3864 33.2928,-12.36563 5.5285,-2.58637 8.0454,-3.33168 8.3334,-2.46772 0.2269,0.68079 0.7773,1.23781 1.2231,1.23781 0.4457,0 4.2798,-6.05858 8.5202,-13.4635 8.2336,-14.37835 9.5978,-16.09767 12.0319,-15.16362 1.1351,0.43558 2.0834,-0.63649 3.5129,-3.9714 2.2765,-5.31087 4.5075,-5.40764 4.3563,-0.18894 -0.062,2.14904 -1.513,5.79163 -3.75,9.41592 -2.0067,3.25104 -3.6353,7.02711 -3.6192,8.39126 0.029,2.47577 0.034,2.47452 2.75,-0.68915 1.4964,-1.74318 3.4467,-4.20595 4.334,-5.47281 1.4325,-2.04536 1.9086,-2.16882 4.25,-1.10202 1.4502,0.66076 2.6222,1.54853 2.6044,1.97282 -0.018,0.42429 -3.8501,4.78112 -8.5164,9.68184 -6.3644,6.68404 -8.3345,9.38214 -7.885,10.7984 0.4211,1.32687 -0.6142,3.20439 -3.4835,6.31725 -2.2456,2.4361 -4.0828,4.79835 -4.0828,5.24945 0,1.43066 -14.075,15.21192 -17.1716,16.81323 -2.2556,1.16643 -2.7117,1.84691 -1.8965,2.82926 0.7904,0.95233 0.2816,3.03996 -1.9292,7.91577 -1.6515,3.64228 -3.0027,7.73802 -3.0027,9.10165 0,1.64469 -1.1898,3.41943 -3.5344,5.27196 -1.9439,1.53595 -6.4533,6.73013 -10.0209,11.54263 -6.0732,8.1925 -8.4953,10.09519 -9.9188,7.79184 -0.3257,-0.52699 1.8303,-4.68949 4.7911,-9.25 8.0832,-12.45028 8.4782,-13.99581 1.672,-6.54184 -6.4011,7.01036 -7.6586,7.77466 -8.6293,5.24501 -0.3765,-0.98114 2.419,-4.65385 8.0314,-10.55147 4.7349,-4.97557 8.6089,-9.47332 8.6089,-9.99501 0,-2.46593 -3.0852,-0.13005 -12.6154,9.55147 -9.8003,9.95589 -13.5623,12.3286 -14.6661,9.25 -0.8338,-2.32538 1.2533,-4.59706 11.5317,-12.55154 12.2007,-9.44213 16.572,-12.20393 18.2792,-11.5488 0.6976,0.26768 1.5654,0.006 1.9285,-0.58149 C 325.821,492.48068 326.9649,492 328,492 c 1.7793,0 3.6525,-1.6808 2.8111,-2.52224 -0.2141,-0.21405 -2.192,0.23192 -4.3953,0.99104 -3.1105,1.07165 -6.2318,1.18151 -13.961,0.49139 -5.4751,-0.48886 -14.1069,-0.90489 -19.1818,-0.92452 -10.1562,-0.0393 -11.2513,0.59812 -12.8252,7.46433 -1.0147,4.42672 -2.782,5.437 -7.6123,4.35169 -5.3964,-1.21247 -7.5728,-2.44867 -8.2901,-4.70868 -0.4579,-1.44264 -3.7774,-2.67475 -14.8177,-5.49999 -7.8253,-2.00247 -18.80576,-5.38579 -24.40117,-7.51847 C 215.32764,480.31349 213,480.20735 213,483.5625 c 0,0.63937 -1.36991,2.88629 -3.04424,4.99317 -1.67955,2.11344 -2.91233,4.74834 -2.75,5.87773 0.18309,1.27378 3.31629,4.09607 8.29424,7.4712 15.6363,10.60167 51.153,36.58789 61.0171,44.64392 11.7394,9.58765 20.6586,18.92699 23.6648,24.77954 1.6645,3.24049 2.1625,6.06969 2.2305,12.67194 0.1041,10.10155 -0.7841,14.00581 -3.1815,13.98492 -0.952,-0.008 -7.2476,-2.93309 -13.9903,-6.49955 z M 340.3489,465.6467 c 10.7925,-4.63503 13.8292,-6.18604 15.3056,-7.8174 0.9105,-1.00612 1.1908,-1.8293 0.6229,-1.8293 -0.5679,0 -1.5927,0.675 -2.2774,1.5 -3.6837,4.43861 -3.9716,-0.64918 -0.4319,-7.63433 3.8193,-7.53706 1.4492,-5.1055 -3.9718,4.0748 -5.3271,9.02136 -6.0658,9.74466 -8.1694,7.99885 -1.2114,-1.00538 -1.9414,-0.80458 -3.9562,1.08822 -4.1885,3.93487 -2.905,5.10284 2.8782,2.61916 z M 363,446.01561 c 0,-1.74454 -2.5829,0.008 -4.3029,2.92004 -0.9334,1.58012 -1.6839,3.2535 -1.6678,3.71864 0.04,1.15266 5.9707,-5.4416 5.9707,-6.63868 z M 358,441 c 0.5887,-1.1 0.8454,-2 0.5704,-2 -0.275,0 -0.9817,0.9 -1.5704,2 -0.5887,1.1 -0.8454,2 -0.5704,2 0.275,0 0.9817,-0.9 1.5704,-2 z m 2.8069,-5.52646 c -0.3079,-0.30789 -0.8671,0.24711 -1.2426,1.23333 -0.5427,1.4252 -0.4278,1.54006 0.5598,0.5598 0.6834,-0.67834 0.9907,-1.48524 0.6828,-1.79313 z M 386.0262,520.5 c -0.053,-9.34461 -2.6025,-15.96849 -9.1322,-23.73002 -4.6594,-5.53839 -6.8979,-10.41175 -6.8842,-14.98786 0.015,-5.10942 4.4129,-13.33525 10.2499,-19.17224 5.5377,-5.5377 13.5235,-11.15998 14.4854,-10.19814 0.3058,0.30586 -1.0651,4.15329 -3.0465,8.54985 -4.0649,9.01974 -6.1673,18.70575 -5.2735,24.2954 0.3312,2.07121 1.9968,6.42636 3.7013,9.67812 2.4457,4.66574 3.1233,7.24613 3.2135,12.23859 0.1381,7.64393 -1.6797,14.49128 -4.8893,18.4169 l -2.3787,2.9094 -0.046,-8 z m 1.266,-152 c 0.223,-12.54841 -0.1095,-21.71646 -0.9791,-27 -2.1213,-12.88722 -1.4456,-39.70082 1.0636,-42.21006 0.1995,-0.19942 0.6869,5.61625 1.0832,12.92373 0.3964,7.30748 1.5732,18.01133 2.6152,23.78633 1.042,5.775 1.8996,14.325 1.9057,19 0.013,10.10505 -2.4155,26.13052 -4.5239,29.84983 -1.3686,2.4144 -1.4723,0.95983 -1.1647,-16.34983 z m -3.2422,-145.60235 -4.2554,-11.10235 -5.1473,-2.24528 c -2.831,-1.2349 -7.7951,-3.32634 -11.0314,-4.64765 -3.2362,-1.3213 -5.9362,-2.85237 -6,-3.40237 -0.064,-0.55 4.3841,-2.81042 9.8841,-5.02317 5.5,-2.21274 10.484,-4.32829 11.0756,-4.70123 0.5916,-0.37294 3.024,-5.65002 5.4053,-11.72684 C 386.3622,173.97194 388.8531,169 389.5163,169 c 0.6631,0 3.1105,4.94958 5.4387,10.99906 2.3281,6.04949 4.7532,11.32657 5.389,11.72684 0.6358,0.40027 5.6267,2.53819 11.0909,4.75093 5.4642,2.21275 10.0876,4.50587 10.2742,5.09584 0.1866,0.58996 -4.2841,2.80022 -9.9349,4.91169 -5.6508,2.11147 -10.8055,4.24546 -11.4548,4.74221 -0.6494,0.49674 -3.0744,5.82398 -5.389,11.8383 C 392.6158,229.07919 390.1783,234 389.5137,234 c -0.6645,0 -3.1232,-4.99606 -5.4637,-11.10235 z M 46.02111,419.51552 C 21.00772,403.35166 0.44497,389.76068 0.32609,389.31334 0.20722,388.866 11.67272,381.09169 25.80498,372.03708 c 14.13226,-9.05461 34.89705,-22.44258 46.14397,-29.75105 11.24693,-7.30846 20.82746,-12.90962 21.29008,-12.447 0.46262,0.46262 0.38839,2.86129 -0.16495,5.33039 -1.67653,7.48102 -4.04943,28.58009 -4.70446,41.83058 -0.73731,14.91476 0.9628,43.32241 3.53826,59.12199 1.77496,10.88879 1.82015,12.93656 0.2831,12.83019 -0.38004,-0.0263 -21.15648,-13.2728 -46.16987,-29.43666 z M 685.4101,446.25 c 6.0183,-29.0852 6.8346,-71.44823 1.9702,-102.25 -2.005,-12.69607 -2.0942,-13.83727 -1.1105,-14.20906 0.8949,-0.33821 92.6138,58.39318 92.6835,59.34904 0.026,0.35199 -10.6408,7.51415 -23.7033,15.91591 C 742.1875,413.45765 727,423.25372 721.5,426.82494 695.4207,443.75854 687.0242,449 685.9768,449 c -0.7102,0 -0.9225,-1.03023 -0.5667,-2.75 z M 329.6851,93.29956 C 328.9501,92.110284 387.6629,0.882179 389.5,0.3589718 c 0.55,-0.1566373 9.1,12.3708582 19,27.8388792 9.9,15.468021 23.2694,36.259397 29.7098,46.203058 6.4405,9.943661 11.3874,18.401905 10.9932,18.796099 -0.3942,0.394197 -6.1136,-0.164836 -12.7099,-1.242288 -24.5403,-4.00851 -55.6563,-4.762731 -79.9931,-1.938955 -9.7886,1.135764 -20.7481,2.777731 -24.1409,3.61681 -1.1775,0.29121 -2.3808,0.14136 -2.674,-0.333015 z"
     id="path31"
     inkscape:connector-curvature="0" />
  <path
     style="fill:#d40000"
     d="M 329.68514,93.299561 C 328.95013,92.110285 387.66286,0.88218025 389.5,0.35897305 c 0.55,-0.1566373 9.1,12.37085795 19,27.83887895 9.9,15.468021 23.26943,36.259397 29.70985,46.203058 6.44042,9.943661 11.38734,18.401905 10.99314,18.796099 -0.39419,0.394197 -6.11363,-0.164836 -12.70985,-1.242288 C 411.95278,87.946211 380.8368,87.19199 356.5,90.015766 c -9.78861,1.135764 -20.74814,2.777731 -24.14091,3.61681 -1.17749,0.29121 -2.38077,0.14136 -2.67395,-0.333015 z"
     id="path31-6" />
</svg>
