<?xml version="1.0" encoding="UTF-8" standalone="no"?>
<!-- Created with Inkscape (http://www.inkscape.org/) -->

<svg
   xmlns:dc="http://purl.org/dc/elements/1.1/"
   xmlns:cc="http://creativecommons.org/ns#"
   xmlns:rdf="http://www.w3.org/1999/02/22-rdf-syntax-ns#"
   xmlns:svg="http://www.w3.org/2000/svg"
   xmlns="http://www.w3.org/2000/svg"
   xmlns:sodipodi="http://sodipodi.sourceforge.net/DTD/sodipodi-0.dtd"
   xmlns:inkscape="http://www.inkscape.org/namespaces/inkscape"
   version="1.1"
   id="svg3783"
   width="1672"
   height="324"
   viewBox="0 0 1672 324"
   sodipodi:docname="logo.svg"
   inkscape:version="0.92.3 (2405546, 2018-03-11)">
  <metadata
     id="metadata3789">
    <rdf:RDF>
      <cc:Work
         rdf:about="">
        <dc:format>image/svg+xml</dc:format>
        <dc:type
           rdf:resource="http://purl.org/dc/dcmitype/StillImage" />
        <dc:title></dc:title>
      </cc:Work>
    </rdf:RDF>
  </metadata>
  <defs
     id="defs3787" />
  <sodipodi:namedview
     pagecolor="#ffffff"
     bordercolor="#666666"
     borderopacity="1"
     objecttolerance="10"
     gridtolerance="10"
     guidetolerance="10"
     inkscape:pageopacity="0"
     inkscape:pageshadow="2"
     inkscape:window-width="3440"
     inkscape:window-height="1377"
     id="namedview3785"
     showgrid="false"
     inkscape:zoom="1.96"
     inkscape:cx="777.07143"
     inkscape:cy="162"
     inkscape:window-x="-8"
     inkscape:window-y="-8"
     inkscape:window-maximized="1"
     inkscape:current-layer="svg3783" />
  <path
     inkscape:connector-curvature="0"
     id="path3797"
     d="m 541.61904,289.14827 c -11.42529,-1.26628 -14.99541,-5.69026 -9.23809,-11.44758 1.90476,-1.90476 0.87445,-2.09524 -11.33333,-2.09524 -14.99428,0 -15.12928,-0.0748 -9.17204,-5.08608 30.93809,-26.02506 127.0768,-111.44995 127.0768,-112.91522 0,-1.0727 -23.7,-23.96441 -52.66667,-50.87048 C 536.56167,60.546863 528.33983,52.341933 529.65287,50.217384 529.95463,49.72912 525.19378,44.441691 519.0732,38.467539 L 507.94487,27.605447 h 63.61659 63.61658 l 41.68718,37 c 22.92793,20.35 42.21182,37.194883 42.85308,37.433083 0.64125,0.2382 21.13125,-16.390601 45.53333,-36.952883 l 44.36741,-37.385967 51.30478,-0.04712 51.30477,-0.04712 -8.45792,7.666666 -8.45792,7.666674 4.29897,0.2911 c 8.05699,0.545568 10.21716,5.20658 5.3064,11.449607 -1.4855,1.888514 -27.20482,23.551612 -57.15404,48.140213 -29.94922,24.58861 -55.42721,46.1932 -56.61774,48.0102 l -2.16463,3.30363 11.652,10.41364 c 6.4086,5.72749 37.43993,32.90868 68.95853,60.40262 l 57.30654,49.98899 -4.89724,0.40929 -4.89724,0.4093 2.5907,2.5907 c 3.3279,3.3279 3.2727,5.56014 -0.21556,8.71739 l -2.80625,2.53999 h -57.52708 -57.52707 l -6,-3.01846 c -3.3,-1.66016 -20.1,-14.76742 -37.33333,-29.12728 -48.13427,-40.10837 -48.25421,-40.18266 -57.33333,-35.51422 -2.56667,1.31977 -20.75136,15.73868 -40.41043,32.042 -19.65907,16.30333 -38.25907,30.93729 -41.33333,32.5199 l -5.58958,2.8775 -32,0.32501 c -17.6,0.17876 -35.6,-0.074 -40,-0.56163 z m -162.66666,-89.34188 -13.33334,-7.65386 -0.38161,-12.9402 -0.38161,-12.94022 h -26.61839 -26.61839 v 13.38162 13.38161 l -13,-0.38161 -13,-0.38162 -0.35681,-33.94688 -0.35683,-33.94688 10.32555,-10.38645 10.32553,-10.38645 h 33.3959 33.39589 l 10.32145,10.38234 10.32144,10.38234 -0.35272,41.54506 -0.35273,41.54507 z m -14,-64.8958 v -11.36152 l -26.33334,0.36152 -26.33333,0.36152 -0.38725,11 -0.38726,11 h 26.72059 26.72059 z m 166.36553,64.90476 -12.9678,-7.54324 -0.36553,-27.58926 -0.36554,-27.58927 -15.99469,21.97439 -15.99471,21.9744 -9.2797,-0.38514 -9.27972,-0.38512 -16.05892,-21.9947 -16.05892,-21.99471 -0.35999,28.376 -0.35999,28.376 -12.97334,-0.38129 -12.97335,-0.3813 -0.35136,-44.3758 -0.35136,-44.3758 15.60039,0.3758 15.6004,0.3758 18.66577,25.592 c 10.26617,14.0756 19.12175,25.31019 19.67905,24.96575 0.55732,-0.34444 9.2676,-12.01084 19.35619,-25.92533 l 18.34289,-25.29908 h 15.06235 15.06235 v 52 c 0,28.6 -0.15,51.94445 -0.33334,51.87657 -0.18333,-0.0679 -6.16884,-3.51788 -13.30113,-7.66667 z m 387.9678,-0.12772 -13,-7.2851 v -34.39854 -34.39854 h -13.64617 -13.64616 l -9.01986,-9.66667 c -4.96092,-5.31667 -9.02014,-9.81667 -9.0205,-10 -3.5e-4,-0.18333 26.39936,-0.33333 58.66602,-0.33333 32.26667,0 58.66667,0.46609 58.66667,1.03576 0,0.56966 -4.06505,5.06966 -9.03347,10 l -9.03345,8.96424 h -13.61448 -13.61448 l -0.35205,41.68365 -0.35207,41.68364 z m 166.99999,-0.012 -12.6667,-7.51384 -0.3883,-11.01264 -0.3884,-11.01264 -4.2783,-3.89296 -4.2783,-3.89326 -25,-0.0391 -25,-0.0391 v 15.33336 15.33333 h -13.3333 -13.33336 v -44.66667 -44.66666 l 46.33336,0.047 46.3333,0.047 9.6667,13.10654 c 11.503,15.59638 11.2783,13.3111 2.4387,24.79953 l -7.1814,9.33333 7.2753,7.44336 7.2753,7.44336 0.011,20.36385 c 0.01,11.20012 -0.1757,20.50695 -0.4039,20.68184 -0.2283,0.1749 -6.115,-3.06325 -13.0817,-7.19586 z m -16.9688,-62.81893 2.753,-4.74905 -3.1428,-4.25095 -3.1429,-4.25125 h -25.7492 -25.7493 v 9.36152 9.36152 l 26.1391,-0.36152 26.1391,-0.36152 2.753,-4.74906 z M 88.952381,164.93878 V 123.60545 H 75.91901 62.885641 l -9.93326,-10 -9.93326,-10 h 59.933259 59.93325 l -9.93325,10 -9.93326,10 H 130.00826 116.9974 l -0.35585,34.29566 -0.35584,34.29566 -12,7.02053 c -6.599996,3.86129 -12.749996,7.02824 -13.666663,7.03767 -1.29786,0.0133 -1.666666,-9.12927 -1.666666,-41.31619 z m 1263.333319,34.21444 -12,-7.07292 -0.3607,-27.66877 -0.3607,-27.66876 -16.0328,22.098 -16.0329,22.09801 h -9.1818 -9.1819 l -15.7579,-21.86547 -15.758,-21.86546 -0.6666,27.53213 -0.6667,27.53213 -13,0.38162 -13,0.38161 v -44.71495 -44.71494 l 15,0.028 15,0.028 18.6667,25.92578 c 10.2666,14.25919 18.9762,25.94659 19.3545,25.972 0.3784,0.0255 9.0784,-11.63809 19.3334,-25.91892 l 18.6454,-25.96514 15.6667,-0.0349 15.6666,-0.0349 v 51.33341 c 0,40.19004 -0.3617,51.32835 -1.6666,51.31035 -0.9167,-0.012 -7.0667,-3.2058 -13.6667,-7.09591 z M 171.1746,192.04989 c -0.48889,-0.48888 -0.88889,-20.58888 -0.88889,-44.66667 v -43.77777 h 52.66667 c 28.96666,0 52.66666,0.46609 52.66666,1.03576 0,0.56966 -4.05309,5.05779 -9.00688,9.97362 l -9.00688,8.93786 -29.99312,0.35971 -29.99312,0.35971 -0.40301,7 -0.40301,7 h 32.73634 c 18.00499,0 32.73635,0.39575 32.73635,0.87946 0,0.48369 -3.45,4.53369 -7.66667,9 l -7.66666,8.12054 -24.66667,0.66667 -24.66667,0.66667 v 7.33333 7.33333 h 37.66631 c 20.71648,0 37.66648,0.31502 37.66667,0.70004 2e-4,0.38502 -4.36375,5.03502 -9.69767,10.33334 l -9.69801,9.63329 h -40.74643 c -22.41053,0 -41.14643,-0.4 -41.63531,-0.88889 z m 944.4444,-43.77778 v -44.66666 h 52.9667 52.9666 l -9.9333,10 -9.9332,10 h -29.7001 -29.7 v 7.33333 7.33333 h 32.6667 c 17.9666,0 32.6666,0.46734 32.6666,1.03852 0,0.57119 -3.7661,4.77119 -8.3692,9.33334 l -8.3692,8.29481 h -24.364 -24.364 l 0.3999,7.66667 0.3999,7.66666 h 36.9996 c 20.3498,0 36.9998,0.31502 37,0.70004 2e-4,0.38502 -4.3637,5.03502 -9.6977,10.33334 l -9.698,9.63329 h -40.9686 -40.9687 z m 266.6667,0 v -44.66666 h 52.9667 52.9665 l -9.9332,10 -9.9332,10 h -29.7001 -29.7 v 7.33333 7.33333 h 32.6666 c 17.9667,0 32.6667,0.46734 32.6667,1.03852 0,0.57119 -3.7661,4.77119 -8.3692,9.33334 l -8.3692,8.29481 h -24.364 -24.364 l 0.3999,7.66667 0.3998,7.66666 h 36.9996 c 20.3499,0 36.9999,0.31502 37,0.70004 3e-4,0.38502 -4.3637,5.03502 -9.6976,10.33334 l -9.698,9.63329 h -40.9686 -40.9687 z m 116,43.64675 c 0,-0.57837 4.0881,-5.10839 9.0847,-10.06667 l 9.0846,-9.01508 33.3768,0.004 33.3768,0.004 3.6698,-3.83036 3.6697,-3.83036 -3.0487,-4.12344 -3.0485,-4.12345 -34.0827,-0.0421 -34.0825,-0.0421 -9.1784,-12.49224 c -10.9268,-14.87187 -11.0088,-11.87134 0.7587,-27.75692 l 9.6298,-13 h 51.225 51.2248 l -1.7516,2.33334 c -0.9634,1.28333 -5.068,5.78333 -9.1215,10 l -7.37,7.66666 h -34.1427 -34.1426 l -2.8991,3.08594 c -3.6592,3.89505 -3.6335,5.09266 0.1869,8.68165 l 3.0859,2.89908 h 33.4183 33.4182 l 9.4959,12.63331 c 11.5341,15.34516 11.5488,13.31298 -0.2073,28.70002 l -9.6776,12.66667 -50.9763,0.34917 c -28.0371,0.19336 -50.9764,-0.12273 -50.9764,-0.70112 z"
     style="fill:#f8001c;stroke-width:1.33333337" />
  <path
     inkscape:connector-curvature="0"
     id="path3795"
     d="m 541.61904,289.14827 c -9.50908,-1.0539 -11.33333,-2.0328 -11.33333,-6.08153 0,-7.13841 1.78392,-7.46129 41.22408,-7.46129 h 36.34743 l 26.21425,-21.71827 c 14.41783,-11.94505 34.73049,-28.76433 45.13925,-37.37617 l 18.925,-15.65791 44.97834,37.37617 44.97833,37.37618 h 64.42999 64.43 l 2.66666,2.66666 c 3.40327,3.40327 3.3681,5.6185 -0.1396,8.79335 l -2.80625,2.53999 h -57.52708 -57.52707 l -6,-3.01846 c -3.3,-1.66016 -20.1,-14.76742 -37.33333,-29.12728 -48.13427,-40.10837 -48.25421,-40.18266 -57.33333,-35.51422 -2.56667,1.31977 -20.75136,15.73868 -40.41043,32.042 -19.65907,16.30333 -38.25907,30.93729 -41.33333,32.5199 l -5.58958,2.8775 -32,0.32501 c -17.6,0.17876 -35.6,-0.074 -40,-0.56163 z m -162.66666,-89.34188 -13.33334,-7.65386 -0.38161,-12.9402 -0.38161,-12.94022 h -26.61839 -26.61839 v 13.38162 13.38161 l -13,-0.38161 -13,-0.38162 -0.35681,-33.94688 -0.35683,-33.94688 10.32555,-10.38645 10.32553,-10.38645 h 33.3959 33.39589 l 10.32145,10.38234 10.32144,10.38234 -0.35272,41.54506 -0.35273,41.54507 z m -14,-64.8958 v -11.36152 l -26.33334,0.36152 -26.33333,0.36152 -0.38725,11 -0.38726,11 h 26.72059 26.72059 z m 166.36553,64.90476 -12.9678,-7.54324 -0.36553,-27.58926 -0.36554,-27.58927 -15.99469,21.97439 -15.99471,21.9744 -9.2797,-0.38514 -9.27972,-0.38512 -16.05892,-21.9947 -16.05892,-21.99471 -0.35999,28.376 -0.35999,28.376 -12.97334,-0.38129 -12.97335,-0.3813 -0.35136,-44.3758 -0.35136,-44.3758 15.60039,0.3758 15.6004,0.3758 18.66577,25.592 c 10.26617,14.0756 19.12175,25.31019 19.67905,24.96575 0.55732,-0.34444 9.2676,-12.01084 19.35619,-25.92533 l 18.34289,-25.29908 h 15.06235 15.06235 v 52 c 0,28.6 -0.15,51.94445 -0.33334,51.87657 -0.18333,-0.0679 -6.16884,-3.51788 -13.30113,-7.66667 z m 387.9678,-0.12772 -13,-7.2851 v -34.39854 -34.39854 h -13.64617 -13.64616 l -9.01986,-9.66667 c -4.96092,-5.31667 -9.02014,-9.81667 -9.0205,-10 -3.5e-4,-0.18333 26.39936,-0.33333 58.66602,-0.33333 32.26667,0 58.66667,0.46609 58.66667,1.03576 0,0.56966 -4.06505,5.06966 -9.03347,10 l -9.03345,8.96424 h -13.61448 -13.61448 l -0.35205,41.68365 -0.35207,41.68364 z m 166.99999,-0.012 -12.6667,-7.51384 -0.3883,-11.01264 -0.3884,-11.01264 -4.2783,-3.89296 -4.2783,-3.89326 -25,-0.0391 -25,-0.0391 v 15.33336 15.33333 h -13.3333 -13.33336 v -44.66667 -44.66666 l 46.33336,0.047 46.3333,0.047 9.6667,13.10654 c 11.503,15.59638 11.2783,13.3111 2.4387,24.79953 l -7.1814,9.33333 7.2753,7.44336 7.2753,7.44336 0.011,20.36385 c 0.01,11.20012 -0.1757,20.50695 -0.4039,20.68184 -0.2283,0.1749 -6.115,-3.06325 -13.0817,-7.19586 z m -16.9688,-62.81893 2.753,-4.74905 -3.1428,-4.25095 -3.1429,-4.25125 h -25.7492 -25.7493 v 9.36152 9.36152 l 26.1391,-0.36152 26.1391,-0.36152 2.753,-4.74906 z M 88.952381,164.93878 V 123.60545 H 75.91901 62.885641 l -9.93326,-10 -9.93326,-10 h 59.933259 59.93325 l -9.93325,10 -9.93326,10 H 130.00826 116.9974 l -0.35585,34.29566 -0.35584,34.29566 -12,7.02053 c -6.599996,3.86129 -12.749996,7.02824 -13.666663,7.03767 -1.29786,0.0133 -1.666666,-9.12927 -1.666666,-41.31619 z m 1263.333319,34.21444 -12,-7.07292 -0.3607,-27.66877 -0.3607,-27.66876 -16.0328,22.098 -16.0329,22.09801 h -9.1818 -9.1819 l -15.7579,-21.86547 -15.758,-21.86546 -0.6666,27.53213 -0.6667,27.53213 -13,0.38162 -13,0.38161 v -44.71495 -44.71494 l 15,0.028 15,0.028 18.6667,25.92578 c 10.2666,14.25919 18.9762,25.94659 19.3545,25.972 0.3784,0.0255 9.0784,-11.63809 19.3334,-25.91892 l 18.6454,-25.96514 15.6667,-0.0349 15.6666,-0.0349 v 51.33341 c 0,40.19004 -0.3617,51.32835 -1.6666,51.31035 -0.9167,-0.012 -7.0667,-3.2058 -13.6667,-7.09591 z M 171.1746,192.04989 c -0.48889,-0.48888 -0.88889,-20.58888 -0.88889,-44.66667 v -43.77777 h 52.66667 c 28.96666,0 52.66666,0.46609 52.66666,1.03576 0,0.56966 -4.05309,5.05779 -9.00688,9.97362 l -9.00688,8.93786 -29.99312,0.35971 -29.99312,0.35971 -0.40301,7 -0.40301,7 h 32.73634 c 18.00499,0 32.73635,0.39575 32.73635,0.87946 0,0.48369 -3.45,4.53369 -7.66667,9 l -7.66666,8.12054 -24.66667,0.66667 -24.66667,0.66667 v 7.33333 7.33333 h 37.66631 c 20.71648,0 37.66648,0.31502 37.66667,0.70004 2e-4,0.38502 -4.36375,5.03502 -9.69767,10.33334 l -9.69801,9.63329 h -40.74643 c -22.41053,0 -41.14643,-0.4 -41.63531,-0.88889 z m 944.4444,-43.77778 v -44.66666 h 52.9667 52.9666 l -9.9333,10 -9.9332,10 h -29.7001 -29.7 v 7.33333 7.33333 h 32.6667 c 17.9666,0 32.6666,0.46734 32.6666,1.03852 0,0.57119 -3.7661,4.77119 -8.3692,9.33334 l -8.3692,8.29481 h -24.364 -24.364 l 0.3999,7.66667 0.3999,7.66666 h 36.9996 c 20.3498,0 36.9998,0.31502 37,0.70004 2e-4,0.38502 -4.3637,5.03502 -9.6977,10.33334 l -9.698,9.63329 h -40.9686 -40.9687 z m 266.6667,0 v -44.66666 h 52.9667 52.9665 l -9.9332,10 -9.9332,10 h -29.7001 -29.7 v 7.33333 7.33333 h 32.6666 c 17.9667,0 32.6667,0.46734 32.6667,1.03852 0,0.57119 -3.7661,4.77119 -8.3692,9.33334 l -8.3692,8.29481 h -24.364 -24.364 l 0.3999,7.66667 0.3998,7.66666 h 36.9996 c 20.3499,0 36.9999,0.31502 37,0.70004 3e-4,0.38502 -4.3637,5.03502 -9.6976,10.33334 l -9.698,9.63329 h -40.9686 -40.9687 z m 116,43.64675 c 0,-0.57837 4.0881,-5.10839 9.0847,-10.06667 l 9.0846,-9.01508 33.3768,0.004 33.3768,0.004 3.6698,-3.83036 3.6697,-3.83036 -3.0487,-4.12344 -3.0485,-4.12345 -34.0827,-0.0421 -34.0825,-0.0421 -9.1784,-12.49224 c -10.9268,-14.87187 -11.0088,-11.87134 0.7587,-27.75692 l 9.6298,-13 h 51.225 51.2248 l -1.7516,2.33334 c -0.9634,1.28333 -5.068,5.78333 -9.1215,10 l -7.37,7.66666 h -34.1427 -34.1426 l -2.8991,3.08594 c -3.6592,3.89505 -3.6335,5.09266 0.1869,8.68165 l 3.0859,2.89908 h 33.4183 33.4182 l 9.4959,12.63331 c 11.5341,15.34516 11.5488,13.31298 -0.2073,28.70002 l -9.6776,12.66667 -50.9763,0.34917 c -28.0371,0.19336 -50.9764,-0.12273 -50.9764,-0.70112 z M 637.61904,154.91567 c -1.46666,-1.75454 -25.46666,-24.31794 -53.33333,-50.14087 -46.75864,-43.329376 -57.87197,-54.502687 -54.21013,-54.502687 1.5139,0 1.66226,0.134848 67.93229,61.749477 37.206,34.59231 45.43308,42.85855 44.17008,44.38038 -0.85365,1.02857 -1.62863,1.83272 -1.72216,1.78697 -0.0936,-0.0457 -1.37008,-1.51872 -2.83675,-3.27327 z m 143.4908,-7.15664 -7.17588,-6.30901 51.17588,-41.96519 c 76.124,-62.423138 69.01071,-57.032121 74.3744,-56.366857 17.32775,2.14918 14.79311,5.114238 -48.87813,57.178307 -28.40955,23.23053 -54.05373,44.83258 -56.98707,48.00454 l -5.33333,5.76723 z"
     style="fill:#101111;stroke-width:1.33333337" />
</svg>
